<?xml version="1.0" encoding="UTF-8" standalone="no"?>
<svg
   xmlns:dc="http://purl.org/dc/elements/1.1/"
   xmlns:cc="http://creativecommons.org/ns#"
   xmlns:rdf="http://www.w3.org/1999/02/22-rdf-syntax-ns#"
   xmlns:svg="http://www.w3.org/2000/svg"
   xmlns="http://www.w3.org/2000/svg"
   xmlns:sodipodi="http://sodipodi.sourceforge.net/DTD/sodipodi-0.dtd"
   xmlns:inkscape="http://www.inkscape.org/namespaces/inkscape"
   viewBox="0 0 369 359"
   version="1.1"
   id="svg34"
   sodipodi:docname="cupcake-312345.svg"
   width="369"
   height="359"
   inkscape:version="0.92.2 (5c3e80d, 2017-08-06)">
  <metadata
     id="metadata40">
    <rdf:RDF>
      <cc:Work
         rdf:about="">
        <dc:format>image/svg+xml</dc:format>
        <dc:type
           rdf:resource="http://purl.org/dc/dcmitype/StillImage" />
        <dc:title></dc:title>
      </cc:Work>
    </rdf:RDF>
  </metadata>
  <defs
     id="defs38" />
  <sodipodi:namedview
     pagecolor="#ffffff"
     bordercolor="#666666"
     borderopacity="1"
     objecttolerance="10"
     gridtolerance="10"
     guidetolerance="10"
     inkscape:pageopacity="0"
     inkscape:pageshadow="2"
     inkscape:window-width="1366"
     inkscape:window-height="745"
     id="namedview36"
     showgrid="false"
     inkscape:pagecheckerboard="true"
     inkscape:zoom="0.49166667"
     inkscape:cx="148.13559"
     inkscape:cy="-85.423727"
     inkscape:window-x="-8"
     inkscape:window-y="-8"
     inkscape:window-maximized="1"
     inkscape:current-layer="g32" />
  <path
     d="m 43.641356,193.57017 60.719004,154.74 160.82,1.098 57.437,-154.74 -278.980004,-1.098 h 1e-5 z"
     id="path2"
     style="fill:#000000;fill-rule:evenodd;stroke-width:0;stroke:none"
     inkscape:connector-curvature="0" />
  <g
     id="g32"
     style="stroke-linecap:round;stroke-linejoin:round"
     transform="translate(-67.118644,-84.389831)">
    <g
       id="g14"
       style="fill:#000000;stroke-width:0.1;stroke-miterlimit:4;stroke-dasharray:none">
      <rect
         transform="rotate(-14.546,167.25,352.94)"
         x="166.02"
         y="271.23001"
         width="2.4609001"
         height="163.42"
         id="rect4"
         style="fill:#000000;stroke-width:0.1;stroke-miterlimit:4;stroke-dasharray:none" />
      <rect
         transform="rotate(-7.684,208.5,350.63)"
         x="207.27"
         y="268.91"
         width="2.4609001"
         height="163.42"
         id="rect6"
         style="fill:#000000;stroke-width:0.1;stroke-miterlimit:4;stroke-dasharray:none" />
      <rect
         transform="rotate(-1.302,251.63,350)"
         x="250.39"
         y="268.29001"
         width="2.4609001"
         height="163.42"
         id="rect8"
         style="fill:#000000;stroke-width:0.1;stroke-miterlimit:4;stroke-dasharray:none" />
      <rect
         transform="rotate(4.0856,293.5,350.62)"
         x="292.26999"
         y="268.91"
         width="2.4609001"
         height="163.42"
         id="rect10"
         style="fill:#000000;stroke-width:0.1;stroke-miterlimit:4;stroke-dasharray:none" />
      <rect
         transform="rotate(14.518,333.13,353.75)"
         x="331.89001"
         y="272.04001"
         width="2.4609001"
         height="163.42"
         id="rect12"
         style="fill:#000000;stroke-width:0.1;stroke-miterlimit:4;stroke-dasharray:none" />
    </g>
    <g
       id="g30"
       style="fill:#ffffff;fill-rule:evenodd;stroke:none;stroke-width:5.79799986">
      <path
         d="m 165.96,250.7 c 0,21.697 -19.187,39.286 -42.857,39.286 -23.669,0 -42.857,-17.589 -42.857,-39.286 0,-21.696 19.188,-39.285 42.857,-39.285 23.67,0 42.857,17.589 42.857,39.285 z"
         id="path16"
         style="fill:#ffffff;stroke:none"
         inkscape:connector-curvature="0" />
      <path
         d="m 213.39,255.41 c 0,21.697 -19.188,39.285 -42.857,39.285 -23.67,0 -42.857,-17.588 -42.857,-39.285 0,-21.697 19.187,-39.286 42.857,-39.286 23.669,0 42.857,17.589 42.857,39.286 z"
         id="path18"
         style="fill:#ffffff;stroke:none"
         inkscape:connector-curvature="0" />
      <path
         d="m 275.11,255.48 c 0,21.697 -19.188,39.286 -42.857,39.286 -23.669,0 -42.857,-17.589 -42.857,-39.286 0,-21.697 19.188,-39.286 42.857,-39.286 23.669,0 42.857,17.589 42.857,39.286 z"
         id="path20"
         style="fill:#ffffff;stroke:none"
         inkscape:connector-curvature="0" />
      <path
         d="m 323.54,254.2 c 0,21.697 -19.188,39.286 -42.857,39.286 -23.67,0 -42.858,-17.589 -42.858,-39.286 0,-21.696 19.188,-39.285 42.858,-39.285 23.669,0 42.857,17.589 42.857,39.285 z"
         id="path22"
         style="fill:#ffffff;stroke:none"
         inkscape:connector-curvature="0" />
      <path
         d="m 367.82,253.34 c 0,21.697 -19.187,39.286 -42.857,39.286 -23.669,0 -42.857,-17.589 -42.857,-39.286 0,-21.697 19.188,-39.285 42.857,-39.285 23.67,0 42.857,17.588 42.857,39.285 z"
         id="path24"
         style="fill:#ffffff;stroke:none"
         inkscape:connector-curvature="0" />
      <path
         d="m 416.75,247.55 c 0,21.696 -19.188,39.285 -42.857,39.285 -23.669,0 -42.857,-17.589 -42.857,-39.285 0,-21.697 19.188,-39.286 42.857,-39.286 23.669,0 42.857,17.589 42.857,39.286 z"
         id="path26"
         style="fill:#ffffff;stroke:none"
         inkscape:connector-curvature="0" />
      <path
         d="m 249.76,99.624 c -22.569,0 19.406,16.322 -42.75,30.375 -62.156,14.053 -103.96,52.048 -104.41,98.188 H 399.76 C 399.30401,181.306 354.067,141.815 292.42,129.406 290.395,112.709 272.068,99.624 249.763,99.624 h -2e-5 z"
         id="path28"
         style="fill:#ffffff;stroke:none"
         inkscape:connector-curvature="0" />
    </g>
  </g>
</svg>
